<svg xmlns="http://www.w3.org/2000/svg" xmlns:xlink="http://www.w3.org/1999/xlink" width="1080" zoomAndPan="magnify" viewBox="0 0 810 809.999993" height="1080" preserveAspectRatio="xMidYMid meet" version="1.0"><defs><clipPath id="356eb53a2d"><path d="M 151 24.140625 L 456 24.140625 L 456 316 L 151 316 Z M 151 24.140625 " clip-rule="nonzero"/></clipPath><clipPath id="253b2df691"><path d="M 326 24.140625 L 657 24.140625 L 657 331 L 326 331 Z M 326 24.140625 " clip-rule="nonzero"/></clipPath></defs><path fill="#234531" d="M 159.667969 244.917969 L 279.59375 307.933594 C 279.59375 307.933594 375.640625 148.882812 400.035156 108.222656 C 438.320312 44.394531 447.289062 31.996094 447.289062 31.996094 C 447.289062 31.996094 368.507812 31.996094 346.144531 31.996094 C 309.570312 31.996094 286.078125 41.046875 262.8125 76.714844 C 232.332031 123.464844 159.667969 244.917969 159.667969 244.917969 " fill-opacity="1" fill-rule="nonzero"/><g clip-path="url(#356eb53a2d)"><path fill="#ffffff" d="M 159.667969 244.917969 L 155.976562 251.933594 L 275.910156 314.945312 C 279.609375 316.890625 284.214844 315.609375 286.382812 312.027344 C 286.382812 312.027344 382.421875 152.984375 406.828125 112.300781 C 425.945312 80.429688 437.730469 61.417969 444.707031 50.417969 C 448.203125 44.925781 450.488281 41.421875 451.886719 39.324219 C 452.582031 38.277344 453.058594 37.578125 453.355469 37.148438 C 453.496094 36.941406 453.597656 36.796875 453.660156 36.71875 L 453.710938 36.636719 L 453.335938 36.359375 L 453.710938 36.636719 L 453.335938 36.359375 L 453.710938 36.636719 C 455.460938 34.21875 455.710938 31.046875 454.347656 28.386719 C 452.988281 25.734375 450.273438 24.066406 447.289062 24.066406 C 447.289062 24.066406 368.507812 24.066406 346.144531 24.066406 C 336.675781 24.074219 327.875 24.648438 319.542969 26.171875 C 307.0625 28.429688 295.585938 32.910156 285.128906 40.453125 C 274.65625 47.996094 265.265625 58.445312 256.179688 72.386719 C 240.816406 95.949219 215.03125 137.996094 193.035156 174.238281 C 171.039062 210.46875 152.867188 240.84375 152.867188 240.851562 C 151.75 242.722656 151.445312 244.972656 152.035156 247.070312 C 152.628906 249.167969 154.050781 250.921875 155.976562 251.933594 L 159.667969 244.917969 L 166.46875 248.988281 C 166.46875 248.988281 167.597656 247.097656 169.640625 243.691406 C 176.800781 231.757812 195.113281 201.269531 214.96875 168.664062 C 234.8125 136.078125 256.226562 101.324219 269.449219 81.050781 C 275.023438 72.503906 280.496094 65.730469 286.027344 60.371094 C 294.339844 52.335938 302.671875 47.414062 312.285156 44.28125 C 321.890625 41.160156 332.910156 39.917969 346.144531 39.917969 C 368.507812 39.917969 447.289062 39.917969 447.289062 39.917969 L 447.289062 31.996094 L 440.863281 27.355469 C 440.710938 27.570312 438.410156 30.769531 431.332031 41.933594 C 424.253906 53.085938 412.410156 72.1875 393.234375 104.148438 C 381.050781 124.457031 350.9375 174.390625 323.878906 219.234375 C 310.351562 241.648438 297.582031 262.800781 288.203125 278.347656 C 283.507812 286.125 279.65625 292.496094 276.984375 296.921875 C 274.308594 301.347656 272.820312 303.828125 272.808594 303.835938 L 279.59375 307.933594 L 283.285156 300.917969 L 163.351562 237.902344 L 159.667969 244.917969 L 166.46875 248.988281 L 159.667969 244.917969 " fill-opacity="1" fill-rule="nonzero"/></g><path fill="#234531" d="M 608.371094 178.351562 L 649.03125 155.988281 L 608.371094 322.671875 L 447.789062 269.816406 L 488.449219 241.363281 C 488.449219 241.363281 439.671875 145.828125 415.277344 105.167969 C 376.984375 41.339844 334.480469 31.996094 334.480469 31.996094 C 334.480469 31.996094 437.648438 31.996094 459.992188 31.996094 C 496.574219 31.996094 520.066406 41.046875 543.335938 76.714844 C 573.824219 123.464844 608.371094 178.351562 608.371094 178.351562 " fill-opacity="1" fill-rule="nonzero"/><g clip-path="url(#253b2df691)"><path fill="#ffffff" d="M 608.371094 178.351562 L 612.199219 185.292969 L 637.0625 171.621094 L 602.710938 312.457031 L 465.296875 267.238281 L 492.992188 247.847656 C 496.226562 245.589844 497.300781 241.273438 495.507812 237.761719 C 495.5 237.734375 483.289062 213.828125 468.019531 184.820312 C 460.386719 170.3125 451.992188 154.527344 443.957031 139.804688 C 435.929688 125.078125 428.265625 111.421875 422.066406 101.09375 C 402.347656 68.210938 381.285156 49 364.921875 38.0625 C 348.5625 27.113281 336.96875 24.425781 336.179688 24.253906 L 334.480469 31.996094 L 334.480469 39.917969 C 334.480469 39.917969 437.648438 39.917969 459.992188 39.917969 C 468.820312 39.917969 476.675781 40.472656 483.761719 41.761719 C 494.398438 43.722656 503.285156 47.234375 511.761719 53.320312 C 520.21875 59.414062 528.335938 68.226562 536.695312 81.050781 C 551.917969 104.378906 568.160156 129.769531 580.597656 149.320312 C 586.824219 159.097656 592.09375 167.410156 595.800781 173.277344 C 597.65625 176.21875 599.125 178.539062 600.128906 180.132812 C 601.132812 181.71875 601.660156 182.570312 601.671875 182.570312 C 603.890625 186.117188 608.523438 187.320312 612.199219 185.292969 L 608.371094 178.351562 L 615.082031 174.128906 C 615.074219 174.113281 580.515625 119.207031 549.972656 72.386719 C 543.910156 63.085938 537.726562 55.363281 531.160156 48.992188 C 521.339844 39.433594 510.570312 33.007812 498.753906 29.199219 C 486.925781 25.375 474.195312 24.074219 459.992188 24.066406 C 448.820312 24.066406 417.445312 24.066406 388.855469 24.066406 C 360.265625 24.066406 334.46875 24.066406 334.480469 24.066406 C 330.429688 24.066406 327.035156 27.121094 326.59375 31.136719 C 326.15625 35.160156 328.824219 38.867188 332.769531 39.738281 L 333.78125 35.160156 L 332.730469 39.726562 L 332.769531 39.738281 L 333.78125 35.160156 L 332.730469 39.726562 L 332.8125 39.746094 C 333.859375 40.015625 343.941406 42.703125 358.148438 52.628906 C 372.359375 62.566406 390.761719 79.730469 408.476562 109.246094 C 414.480469 119.234375 422.066406 132.773438 430.042969 147.394531 C 442.003906 169.335938 454.851562 193.742188 464.695312 212.648438 C 469.625 222.109375 473.800781 230.191406 476.738281 235.90625 C 478.207031 238.765625 479.371094 241.03125 480.171875 242.582031 C 480.96875 244.132812 481.386719 244.964844 481.386719 244.964844 L 488.449219 241.363281 L 483.90625 234.867188 L 443.246094 263.332031 C 440.785156 265.050781 439.511719 268 439.949219 270.972656 C 440.390625 273.949219 442.460938 276.414062 445.316406 277.351562 L 605.898438 330.195312 C 607.996094 330.886719 610.289062 330.671875 612.226562 329.597656 C 614.152344 328.53125 615.546875 326.691406 616.078125 324.550781 L 656.726562 157.867188 C 657.46875 154.824219 656.332031 151.605469 653.851562 149.699219 C 651.359375 147.796875 647.957031 147.539062 645.203125 149.042969 L 604.554688 171.40625 L 608.371094 178.351562 L 615.082031 174.128906 L 608.371094 178.351562 " fill-opacity="1" fill-rule="nonzero"/></g><path fill="#234531" d="M 685.398438 313.78125 L 573.5 390.152344 C 573.5 390.152344 662.378906 539.175781 686.847656 579.78125 C 725.257812 643.546875 732.003906 657.273438 732.003906 657.273438 C 732.003906 657.273438 768.953125 587.683594 779.445312 567.945312 C 796.59375 535.636719 799.613281 510.640625 779.023438 473.378906 C 752.019531 424.523438 685.398438 313.78125 685.398438 313.78125 " fill-opacity="1" fill-rule="nonzero"/><path fill="#ffffff" d="M 685.398438 313.78125 L 680.925781 307.234375 L 569.03125 383.613281 C 565.574219 385.96875 564.550781 390.621094 566.691406 394.222656 C 566.703125 394.222656 655.570312 543.226562 680.058594 583.875 C 699.238281 615.710938 710.503906 635.035156 716.945312 646.359375 C 720.160156 652.015625 722.175781 655.679688 723.375 657.902344 C 723.976562 659.003906 724.371094 659.753906 724.605469 660.210938 C 724.722656 660.4375 724.800781 660.597656 724.847656 660.6875 L 724.890625 660.769531 L 725.3125 660.5625 L 724.890625 660.769531 L 725.3125 660.5625 L 724.890625 660.769531 C 726.207031 663.445312 728.894531 665.148438 731.878906 665.195312 C 734.863281 665.246094 737.605469 663.625 739.003906 660.992188 C 739.003906 660.992188 741.3125 656.636719 744.941406 649.808594 C 755.828125 629.3125 778.578125 586.464844 786.441406 571.664062 C 791.03125 563.011719 794.738281 554.703125 797.320312 546.355469 C 799.898438 538.003906 801.332031 529.601562 801.332031 520.980469 C 801.332031 512.925781 800.089844 504.71875 797.535156 496.214844 C 794.980469 487.722656 791.148438 478.925781 785.960938 469.542969 C 772.367188 444.941406 748.957031 405.042969 728.90625 371.214844 C 708.851562 337.398438 692.199219 309.707031 692.1875 309.695312 C 691.070312 307.832031 689.214844 306.507812 687.089844 306.042969 C 684.957031 305.574219 682.726562 306.003906 680.925781 307.234375 L 685.398438 313.78125 L 678.605469 317.867188 C 678.605469 317.867188 679.644531 319.589844 681.519531 322.714844 C 688.078125 333.636719 704.839844 361.625 722.902344 392.207031 C 740.972656 422.785156 760.363281 455.996094 772.089844 477.214844 C 776.847656 485.824219 780.199219 493.589844 782.347656 500.777344 C 784.507812 507.960938 785.476562 514.558594 785.476562 520.980469 C 785.476562 527.863281 784.363281 534.589844 782.179688 541.675781 C 779.992188 548.753906 776.722656 556.175781 772.4375 564.238281 C 761.957031 583.964844 725.007812 653.554688 725.007812 653.554688 L 732.003906 657.273438 L 739.117188 653.777344 C 739.003906 653.539062 737.253906 650.007812 730.714844 638.519531 C 724.183594 627.035156 712.867188 607.621094 693.640625 575.695312 C 681.417969 555.421875 653.082031 508.007812 627.804688 465.683594 C 615.164062 444.511719 603.292969 424.621094 594.574219 410.015625 C 590.21875 402.714844 586.652344 396.730469 584.171875 392.582031 C 581.691406 388.425781 580.3125 386.105469 580.300781 386.09375 L 573.5 390.152344 L 577.964844 396.703125 L 689.867188 320.332031 L 685.398438 313.78125 L 678.605469 317.867188 L 685.398438 313.78125 " fill-opacity="1" fill-rule="nonzero"/><path fill="#234531" d="M 526.160156 730.921875 L 526.160156 777.3125 L 399.742188 663.25 L 526.160156 546.191406 L 526.160156 595.453125 C 526.160156 595.453125 635.042969 597.164062 682.386719 594.683594 C 756.722656 590.792969 784.910156 557.644531 784.910156 557.644531 C 784.910156 557.644531 736.53125 648.761719 726.046875 668.5 C 708.898438 700.816406 689.894531 717.320312 647.480469 721.128906 C 591.886719 726.144531 526.160156 730.921875 526.160156 730.921875 " fill-opacity="1" fill-rule="nonzero"/><path fill="#ffffff" d="M 526.160156 730.921875 L 518.230469 730.921875 L 518.230469 759.492188 L 411.484375 663.167969 L 518.230469 564.335938 L 518.230469 595.453125 C 518.230469 599.78125 521.707031 603.308594 526.035156 603.371094 C 526.050781 603.371094 562.722656 603.957031 602.816406 603.957031 C 631.847656 603.945312 662.605469 603.652344 682.800781 602.601562 C 721.09375 600.605469 747.945312 591 765.28125 581.683594 C 782.617188 572.371094 790.421875 563.394531 790.949219 562.769531 L 784.910156 557.644531 L 777.914062 553.925781 C 777.914062 553.925781 729.523438 645.042969 719.050781 664.78125 C 714.917969 672.578125 710.742188 679.261719 706.28125 684.914062 C 699.5625 693.390625 692.289062 699.589844 682.953125 704.222656 C 673.605469 708.828125 662.003906 711.863281 646.773438 713.234375 C 619.023438 715.734375 588.714844 718.179688 565.359375 720.007812 C 553.675781 720.914062 543.730469 721.664062 536.703125 722.195312 C 533.191406 722.453125 530.40625 722.660156 528.507812 722.804688 C 526.597656 722.9375 525.585938 723.019531 525.578125 723.019531 C 521.429688 723.3125 518.230469 726.753906 518.230469 730.921875 L 526.160156 730.921875 L 526.734375 738.824219 C 526.75 738.824219 592.503906 734.046875 648.199219 729.019531 L 648.1875 729.019531 C 659.246094 728.027344 668.972656 726.191406 677.675781 723.386719 C 690.71875 719.191406 701.445312 712.695312 710.351562 704.042969 C 719.273438 695.394531 726.394531 684.753906 733.054688 672.21875 C 738.285156 662.34375 753.007812 634.632812 766.410156 609.382812 C 773.109375 596.761719 779.492188 584.753906 784.183594 575.902344 C 786.542969 571.476562 788.46875 567.839844 789.8125 565.3125 C 791.15625 562.777344 791.910156 561.363281 791.910156 561.351562 C 793.808594 557.785156 792.707031 553.351562 789.363281 551.085938 C 786.023438 548.808594 781.488281 549.425781 778.871094 552.507812 L 782.445312 555.546875 L 778.90625 552.472656 L 778.871094 552.507812 L 782.445312 555.546875 L 778.90625 552.472656 L 778.84375 552.535156 C 778.121094 553.34375 771.015625 560.976562 755.585938 568.871094 C 740.140625 576.761719 716.351562 584.96875 681.976562 586.769531 C 662.40625 587.792969 631.710938 588.105469 602.816406 588.097656 C 582.847656 588.097656 563.699219 587.960938 549.5625 587.808594 C 542.492188 587.746094 536.667969 587.667969 532.609375 587.613281 C 528.5625 587.558594 526.285156 587.523438 526.277344 587.523438 L 526.160156 595.453125 L 534.078125 595.453125 L 534.078125 546.191406 C 534.078125 543.039062 532.214844 540.199219 529.332031 538.9375 C 526.4375 537.671875 523.085938 538.238281 520.765625 540.378906 L 394.355469 657.433594 C 392.714844 658.949219 391.800781 661.0625 391.8125 663.292969 C 391.828125 665.535156 392.769531 667.628906 394.425781 669.125 L 520.847656 783.199219 C 523.167969 785.296875 526.507812 785.832031 529.375 784.5625 C 532.234375 783.289062 534.078125 780.449219 534.078125 777.3125 L 534.078125 730.921875 L 526.160156 730.921875 L 526.734375 738.824219 L 526.160156 730.921875 " fill-opacity="1" fill-rule="nonzero"/><path fill="#234531" d="M 362.621094 733.511719 L 362.621094 598.273438 C 362.621094 598.273438 176.90625 598.015625 129.492188 598.175781 C 55.058594 598.398438 39.816406 597.128906 39.816406 597.128906 C 39.816406 597.128906 80.558594 664.566406 92.113281 683.695312 C 111.027344 715.007812 130.917969 730.445312 173.484375 731.898438 C 229.257812 733.824219 362.621094 733.511719 362.621094 733.511719 " fill-opacity="1" fill-rule="nonzero"/><path fill="#ffffff" d="M 362.621094 733.511719 L 370.542969 733.511719 L 370.542969 598.273438 C 370.542969 593.902344 367.011719 590.355469 362.628906 590.355469 C 362.628906 590.355469 253.035156 590.203125 180.714844 590.203125 C 158.898438 590.203125 140.476562 590.210938 129.464844 590.246094 C 123.4375 590.265625 117.792969 590.273438 112.515625 590.273438 C 82.644531 590.273438 64.527344 590.003906 53.929688 589.746094 C 48.625 589.609375 45.203125 589.476562 43.132812 589.378906 C 42.09375 589.332031 41.402344 589.296875 40.980469 589.269531 C 40.765625 589.253906 40.625 589.242188 40.542969 589.234375 L 40.453125 589.234375 L 40.085938 593.894531 L 40.472656 589.234375 L 40.453125 589.234375 L 40.085938 593.894531 L 40.472656 589.234375 C 37.496094 588.984375 34.65625 590.417969 33.078125 592.953125 C 31.511719 595.488281 31.496094 598.679688 33.035156 601.230469 C 33.035156 601.230469 73.773438 668.671875 85.332031 687.796875 C 90.222656 695.898438 95.277344 703.128906 100.886719 709.480469 C 109.273438 719.003906 119.039062 726.503906 130.910156 731.558594 C 142.78125 736.617188 156.578125 739.253906 173.214844 739.816406 L 173.207031 739.816406 C 194.46875 740.550781 226.695312 740.957031 258.617188 741.1875 C 290.53125 741.414062 322.125 741.457031 341.960938 741.457031 C 354.726562 741.457031 362.640625 741.4375 362.640625 741.4375 C 367.011719 741.429688 370.542969 737.890625 370.542969 733.511719 L 362.621094 733.511719 L 362.601562 725.589844 C 362.59375 725.589844 360.632812 725.589844 357.066406 725.597656 C 353.5 725.597656 348.339844 725.609375 341.960938 725.609375 C 322.140625 725.609375 290.585938 725.5625 258.726562 725.339844 C 226.882812 725.105469 194.691406 724.703125 173.753906 723.976562 C 163.566406 723.628906 154.929688 722.453125 147.484375 720.492188 C 136.3125 717.535156 127.792969 712.9375 120.140625 706.335938 C 112.507812 699.722656 105.742188 690.933594 98.898438 679.601562 C 93.117188 670.03125 80.046875 648.394531 68.417969 629.140625 C 62.601562 619.519531 57.144531 610.496094 53.148438 603.867188 C 51.140625 600.558594 49.511719 597.84375 48.375 595.972656 C 47.234375 594.089844 46.601562 593.035156 46.601562 593.035156 L 39.816406 597.128906 L 39.15625 605.03125 C 39.628906 605.066406 52.574219 606.125 112.515625 606.125 C 117.808594 606.125 123.464844 606.113281 129.511719 606.097656 L 129.519531 606.097656 C 140.488281 606.0625 158.90625 606.050781 180.714844 606.050781 C 216.867188 606.050781 262.335938 606.085938 298.773438 606.125 C 316.988281 606.140625 332.957031 606.167969 344.351562 606.175781 C 350.058594 606.1875 354.621094 606.195312 357.765625 606.195312 C 360.902344 606.203125 362.601562 606.203125 362.613281 606.203125 L 362.621094 598.273438 L 354.699219 598.273438 L 354.699219 733.511719 L 362.621094 733.511719 L 362.601562 725.589844 L 362.621094 733.511719 " fill-opacity="1" fill-rule="nonzero"/><path fill="#234531" d="M 82.320312 382.671875 L 42.523438 358.859375 L 205.308594 308.945312 L 240.832031 477.527344 L 198.570312 452.234375 C 198.570312 452.234375 141.1875 544.804688 119.003906 586.699219 C 84.167969 652.472656 98.152344 693.683594 98.152344 693.683594 C 98.152344 693.683594 44.800781 605.390625 33.242188 586.25 C 14.328125 554.945312 9.910156 530.15625 28.421875 491.808594 C 52.664062 441.535156 82.320312 382.671875 82.320312 382.671875 " fill-opacity="1" fill-rule="nonzero"/><path fill="#ffffff" d="M 82.320312 382.671875 L 86.390625 375.871094 L 61.886719 361.207031 L 199.34375 319.058594 L 229.339844 461.417969 L 202.640625 445.433594 C 198.921875 443.210938 194.109375 444.386719 191.835938 448.058594 C 191.824219 448.078125 177.464844 471.238281 160.324219 499.667969 C 151.75 513.875 142.476562 529.402344 133.945312 544.023438 C 125.417969 558.648438 117.640625 572.347656 112.003906 582.988281 C 92.078125 620.574219 87.445312 650.886719 87.457031 670.640625 C 87.457031 686.5 90.414062 695.539062 90.644531 696.230469 L 98.152344 693.683594 L 104.9375 689.589844 C 104.9375 689.589844 91.59375 667.515625 76.8125 643.046875 C 62.039062 618.578125 45.800781 591.726562 40.023438 582.15625 C 34.90625 573.691406 31.011719 565.902344 28.421875 558.421875 C 25.832031 550.921875 24.515625 543.746094 24.515625 536.195312 C 24.515625 524.386719 27.777344 511.402344 35.5625 495.257812 C 47.65625 470.164062 61.125 442.898438 71.5625 421.925781 C 76.777344 411.433594 81.238281 402.507812 84.390625 396.210938 C 85.96875 393.054688 87.222656 390.566406 88.082031 388.863281 C 88.933594 387.160156 89.398438 386.246094 89.398438 386.238281 C 91.273438 382.527344 89.964844 378.011719 86.390625 375.871094 L 82.320312 382.671875 L 75.242188 379.105469 C 75.234375 379.132812 45.570312 438.007812 21.28125 488.367188 L 21.289062 488.367188 C 12.8125 505.902344 8.65625 521.367188 8.65625 536.195312 C 8.65625 545.628906 10.359375 554.703125 13.449219 563.601562 C 16.53125 572.515625 20.964844 581.261719 26.457031 590.355469 C 38.015625 609.484375 91.371094 697.789062 91.371094 697.789062 C 93.457031 701.246094 97.832031 702.582031 101.496094 700.871094 C 105.160156 699.167969 106.953125 694.964844 105.652344 691.140625 L 100.921875 692.753906 L 105.671875 691.183594 L 105.652344 691.140625 L 100.921875 692.753906 L 105.671875 691.183594 L 105.671875 691.175781 C 105.582031 690.90625 103.304688 683.667969 103.304688 670.640625 C 103.3125 653.339844 107.28125 625.796875 126.007812 590.410156 C 131.464844 580.105469 139.171875 566.523438 147.636719 552.007812 C 160.339844 530.226562 174.765625 506.3125 186.011719 487.859375 C 191.628906 478.628906 196.457031 470.761719 199.878906 465.207031 C 201.582031 462.429688 202.945312 460.226562 203.875 458.730469 C 204.808594 457.226562 205.300781 456.417969 205.300781 456.410156 L 198.570312 452.234375 L 194.496094 459.035156 L 236.765625 484.328125 C 239.472656 485.949219 242.867188 485.816406 245.4375 483.976562 C 248.011719 482.148438 249.238281 478.988281 248.59375 475.894531 L 213.058594 307.304688 C 212.601562 305.117188 211.257812 303.253906 209.332031 302.117188 C 207.40625 300.980469 205.121094 300.710938 202.980469 301.363281 L 40.195312 351.277344 C 37.203125 352.199219 35.023438 354.789062 34.648438 357.898438 C 34.273438 361.007812 35.757812 364.046875 38.445312 365.660156 L 78.253906 389.472656 L 82.320312 382.671875 L 75.242188 379.105469 L 82.320312 382.671875 " fill-opacity="1" fill-rule="nonzero"/></svg>