<svg xmlns="http://www.w3.org/2000/svg" xmlns:xlink="http://www.w3.org/1999/xlink" width="1080" zoomAndPan="magnify" viewBox="0 0 810 809.999993" height="1080" preserveAspectRatio="xMidYMid meet" version="1.0"><defs><clipPath id="b05490626a"><path d="M 198 149 L 611 149 L 611 785.292969 L 198 785.292969 Z M 198 149 " clip-rule="nonzero"/></clipPath><clipPath id="1f309806ab"><path d="M 80.410156 335 L 164 335 L 164 363 L 80.410156 363 Z M 80.410156 335 " clip-rule="nonzero"/></clipPath><clipPath id="d85eff64bc"><path d="M 391 24.792969 L 419 24.792969 L 419 108 L 391 108 Z M 391 24.792969 " clip-rule="nonzero"/></clipPath></defs><g clip-path="url(#b05490626a)"><path fill="#234531" d="M 610.855469 356.019531 C 610.855469 328.601562 605.554688 301.972656 595.105469 276.859375 C 585.015625 252.613281 570.550781 230.761719 552.109375 211.902344 C 533.691406 193.066406 512.191406 178.121094 488.203125 167.480469 C 463.40625 156.484375 436.996094 150.574219 409.710938 149.925781 C 381.230469 149.242188 353.59375 154.160156 327.570312 164.53125 C 302.414062 174.558594 279.820312 189.238281 260.425781 208.160156 C 241.042969 227.066406 225.820312 249.265625 215.179688 274.140625 C 204.171875 299.878906 198.574219 327.359375 198.546875 355.820312 C 198.527344 380.53125 202.832031 404.707031 211.347656 427.675781 C 219.574219 449.867188 231.5 470.347656 246.785156 488.542969 C 271.808594 518.328125 285.585938 555.875 285.585938 594.265625 L 285.585938 594.710938 C 285.585938 606.835938 291.425781 617.621094 300.433594 624.410156 L 300.433594 701.242188 C 300.433594 722.683594 315.652344 740.640625 335.851562 744.886719 C 341.464844 767.953125 362.292969 785.128906 387.0625 785.128906 L 422.339844 785.128906 C 447.109375 785.128906 467.9375 767.949219 473.550781 744.886719 C 493.753906 740.640625 508.96875 722.683594 508.96875 701.242188 L 508.96875 624.410156 C 517.976562 617.621094 523.816406 606.835938 523.816406 594.710938 C 523.816406 556.105469 537.652344 518.339844 562.773438 488.359375 C 577.992188 470.199219 589.867188 449.773438 598.066406 427.648438 C 606.550781 404.746094 610.855469 380.648438 610.855469 356.019531 Z M 482.152344 631.867188 L 482.152344 662.035156 L 327.253906 662.035156 L 327.253906 631.867188 Z M 422.339844 758.3125 L 387.0625 758.3125 C 377.695312 758.3125 369.476562 753.308594 364.929688 745.835938 L 444.472656 745.835938 C 439.929688 753.308594 431.707031 758.3125 422.339844 758.3125 Z M 482.152344 701.238281 C 482.152344 711.042969 474.175781 719.019531 464.371094 719.019531 L 345.03125 719.019531 C 335.226562 719.019531 327.253906 711.042969 327.253906 701.238281 L 327.253906 688.851562 L 482.148438 688.851562 L 482.148438 701.238281 Z M 572.917969 418.328125 C 565.789062 437.566406 555.464844 455.332031 542.222656 471.132812 C 513.058594 505.929688 497 549.816406 497 594.710938 C 497 600.414062 492.359375 605.050781 486.660156 605.050781 L 406.601562 605.050781 C 410.875 579.230469 413.449219 553.265625 414.46875 527.339844 C 415.367188 503.660156 415.023438 479.949219 413.40625 456.335938 C 414.882812 454.851562 417.679688 452.046875 417.679688 452.046875 C 439.089844 431.375 465.59375 416.113281 494.324219 407.894531 C 497.457031 406.941406 501.25 406.03125 504.542969 405.238281 C 505.175781 405.144531 505.800781 405.058594 506.40625 404.984375 C 508.472656 404.675781 512.589844 404.148438 514.671875 403.933594 L 510.683594 405.207031 C 508.726562 405.875 504.730469 407.261719 502.777344 407.933594 C 500.449219 408.875 497.324219 410.089844 495.015625 411.054688 C 476.269531 419.121094 458.738281 430.734375 443.109375 445.332031 C 454.753906 459.597656 473.726562 467.085938 493.023438 463.148438 C 520.714844 457.5 557.769531 397.714844 557.769531 397.714844 C 557.769531 397.714844 500.261719 357.214844 472.566406 362.863281 C 447.144531 368.046875 430.003906 391.25 431.730469 416.445312 C 424.523438 419.308594 417.480469 422.589844 410.644531 426.257812 C 407.824219 401.796875 403.601562 377.515625 397.929688 353.570312 C 398.230469 353.421875 398.53125 353.269531 398.832031 353.117188 C 423.644531 340.324219 433.386719 309.839844 420.597656 285.027344 C 407.804688 260.21875 341.039062 241.015625 341.039062 241.015625 C 341.039062 241.015625 317.953125 306.539062 330.746094 331.351562 C 339.660156 348.640625 357.164062 358.613281 375.351562 358.742188 C 376.914062 337.683594 375 316.996094 369.609375 297.574219 C 368.921875 295.203125 367.921875 292.042969 367.207031 289.667969 C 366.519531 287.753906 365.113281 283.816406 364.414062 281.898438 L 362.921875 278.042969 C 364.046875 279.777344 366.191406 283.277344 367.234375 285.054688 C 369.277344 288.351562 371.449219 292.503906 373.226562 295.921875 C 374.890625 299.410156 376.9375 303.707031 378.347656 307.320312 C 381.796875 315.78125 384.582031 324.582031 386.679688 333.632812 C 392.804688 371.5625 395.347656 410.101562 394.347656 448.546875 C 392.140625 447.335938 389.941406 446.179688 387.78125 445.101562 C 383.996094 443.226562 380.136719 441.457031 376.222656 439.804688 C 377.804688 415.511719 361.808594 392.84375 337.34375 386.839844 C 309.894531 380.101562 250.832031 418.296875 250.832031 418.296875 C 250.832031 418.296875 285.496094 479.503906 312.945312 486.242188 C 332.070312 490.9375 351.324219 484.207031 363.519531 470.40625 C 348.484375 455.207031 331.417969 442.90625 313.007812 434.109375 C 310.742188 433.054688 307.664062 431.714844 305.375 430.683594 C 303.453125 429.933594 299.515625 428.390625 297.585938 427.644531 L 293.652344 426.21875 C 295.644531 426.503906 299.5 427.152344 301.621094 427.546875 C 303.175781 427.921875 304.785156 428.3125 306.113281 428.652344 C 308.265625 429.28125 311.339844 430.109375 313.464844 430.773438 C 343.152344 440 370.214844 456.648438 391.617188 479.042969 C 391.617188 479.042969 392.109375 478.4375 392.925781 477.429688 C 389.828125 520.300781 382.320312 562.824219 370.453125 604 C 370.347656 604.351562 370.257812 604.699219 370.175781 605.050781 L 322.738281 605.050781 C 317.039062 605.050781 312.398438 600.414062 312.398438 594.710938 L 312.398438 594.265625 C 312.398438 549.574219 296.386719 505.902344 267.3125 471.296875 C 254.011719 455.460938 243.640625 437.648438 236.488281 418.355469 C 229.085938 398.386719 225.339844 377.359375 225.359375 355.847656 C 225.382812 331.023438 230.25 307.082031 239.828125 284.691406 C 249.074219 263.078125 262.300781 243.789062 279.144531 227.359375 C 296 210.914062 315.632812 198.160156 337.496094 189.445312 C 358.761719 180.96875 381.289062 176.683594 404.53125 176.683594 C 406.035156 176.683594 407.550781 176.703125 409.0625 176.738281 C 432.804688 177.304688 455.769531 182.4375 477.324219 192 C 498.191406 201.253906 516.898438 214.257812 532.929688 230.65625 C 565.878906 264.355469 584.027344 308.878906 584.027344 356.019531 C 584.035156 377.457031 580.296875 398.421875 572.917969 418.328125 Z M 572.917969 418.328125 " fill-opacity="1" fill-rule="nonzero"/></g><path fill="#234531" d="M 715.585938 335.742188 L 659.507812 335.742188 C 652.101562 335.742188 646.101562 341.746094 646.101562 349.148438 C 646.101562 356.554688 652.101562 362.558594 659.507812 362.558594 L 715.585938 362.558594 C 722.988281 362.558594 728.992188 356.554688 728.992188 349.148438 C 728.992188 341.746094 722.988281 335.742188 715.585938 335.742188 Z M 715.585938 335.742188 " fill-opacity="1" fill-rule="nonzero"/><g clip-path="url(#1f309806ab)"><path fill="#234531" d="M 149.894531 335.742188 L 93.816406 335.742188 C 86.414062 335.742188 80.410156 341.746094 80.410156 349.148438 C 80.410156 356.554688 86.414062 362.558594 93.816406 362.558594 L 149.894531 362.558594 C 157.300781 362.558594 163.300781 356.554688 163.300781 349.148438 C 163.300781 341.746094 157.300781 335.742188 149.894531 335.742188 Z M 149.894531 335.742188 " fill-opacity="1" fill-rule="nonzero"/></g><path fill="#234531" d="M 615.046875 119.839844 L 575.394531 159.496094 C 570.160156 164.730469 570.160156 173.21875 575.394531 178.457031 C 578.015625 181.078125 581.445312 182.382812 584.875 182.382812 C 588.308594 182.382812 591.742188 181.074219 594.355469 178.457031 L 634.007812 138.804688 C 639.246094 133.570312 639.246094 125.078125 634.007812 119.839844 C 628.773438 114.605469 620.285156 114.605469 615.046875 119.839844 Z M 615.046875 119.839844 " fill-opacity="1" fill-rule="nonzero"/><path fill="#234531" d="M 215.046875 519.84375 L 175.394531 559.496094 C 170.15625 564.734375 170.15625 573.222656 175.394531 578.460938 C 178.011719 581.078125 181.445312 582.386719 184.875 582.386719 C 188.304688 582.386719 191.738281 581.078125 194.355469 578.460938 L 234.007812 538.808594 C 239.242188 533.574219 239.242188 525.082031 234.007812 519.84375 C 228.769531 514.605469 220.28125 514.609375 215.046875 519.84375 Z M 215.046875 519.84375 " fill-opacity="1" fill-rule="nonzero"/><path fill="#234531" d="M 594.355469 519.84375 C 589.121094 514.609375 580.632812 514.609375 575.394531 519.84375 C 570.15625 525.082031 570.160156 533.570312 575.394531 538.808594 L 615.046875 578.460938 C 617.664062 581.078125 621.097656 582.386719 624.527344 582.386719 C 627.957031 582.386719 631.390625 581.078125 634.007812 578.460938 C 639.242188 573.226562 639.242188 564.734375 634.007812 559.496094 Z M 594.355469 519.84375 " fill-opacity="1" fill-rule="nonzero"/><path fill="#234531" d="M 215.046875 178.457031 C 217.664062 181.078125 221.097656 182.382812 224.527344 182.382812 C 227.957031 182.382812 231.390625 181.074219 234.007812 178.457031 C 239.242188 173.222656 239.242188 164.730469 234.007812 159.496094 L 194.355469 119.839844 C 189.121094 114.605469 180.628906 114.605469 175.394531 119.839844 C 170.15625 125.078125 170.15625 133.566406 175.394531 138.804688 Z M 215.046875 178.457031 " fill-opacity="1" fill-rule="nonzero"/><g clip-path="url(#d85eff64bc)"><path fill="#234531" d="M 404.703125 107.753906 C 412.105469 107.753906 418.109375 101.75 418.109375 94.34375 L 418.109375 38.269531 C 418.109375 30.863281 412.105469 24.859375 404.703125 24.859375 C 397.296875 24.859375 391.292969 30.863281 391.292969 38.269531 L 391.292969 94.34375 C 391.292969 101.75 397.296875 107.753906 404.703125 107.753906 Z M 404.703125 107.753906 " fill-opacity="1" fill-rule="nonzero"/></g></svg>